<svg xmlns="http://www.w3.org/2000/svg" viewBox="0 0 200 200">
  <!-- Poop body -->
  <ellipse cx="100" cy="155" rx="60" ry="35" fill="#5D4037"/>
  <ellipse cx="100" cy="120" rx="50" ry="30" fill="#6D4C41"/>
  <ellipse cx="100" cy="90" rx="40" ry="25" fill="#795548"/>
  <ellipse cx="100" cy="65" rx="28" ry="20" fill="#8D6E63"/>
  <ellipse cx="100" cy="48" rx="15" ry="12" fill="#A1887F"/>
  <!-- Eyes -->
  <ellipse cx="85" cy="88" rx="6" ry="7" fill="white"/>
  <ellipse cx="115" cy="88" rx="6" ry="7" fill="white"/>
  <circle cx="87" cy="88" r="3" fill="#3E2723"/>
  <circle cx="117" cy="88" r="3" fill="#3E2723"/>
  <!-- Pupils (highlights) -->
  <circle cx="88.5" cy="86.5" r="1.2" fill="white"/>
  <circle cx="118.5" cy="86.5" r="1.2" fill="white"/>
  <!-- Smile -->
  <path d="M88 105 Q100 118 112 105" stroke="#3E2723" stroke-width="2.5" fill="none" stroke-linecap="round"/>
  <!-- Cheeks -->
  <ellipse cx="78" cy="102" rx="8" ry="5" fill="#D7CCC8" opacity="0.4"/>
  <ellipse cx="122" cy="102" rx="8" ry="5" fill="#D7CCC8" opacity="0.4"/>
  <!-- Highlight -->
  <ellipse cx="92" cy="62" rx="6" ry="4" fill="white" opacity="0.25" transform="rotate(-20 92 62)"/>
</svg>
